<svg width="30" height="40" viewBox="0 0 30 40" fill="none" xmlns="http://www.w3.org/2000/svg">
<path d="M0 35.8621V4.13793C0 0 0 0 4.09091 0H21.9767L30 8.11548V35.8621C30 40 30 40 25.9091 40H4.09091C0 40 0 40 0 35.8621Z" fill="url(#paint0_linear_7_46)"/>
<path d="M22.0267 7.40978V0.121693L26.0321 4.17308L29.8803 8.06548H22.6744C22.4988 8.06548 22.3713 8.0654 22.2767 8.05476C22.1817 8.04409 22.1307 8.0237 22.0995 7.99211C22.0682 7.96041 22.0479 7.90858 22.0373 7.8123C22.0268 7.71645 22.0267 7.58742 22.0267 7.40978Z" fill="#ECECEC" stroke="#6D6D6D" stroke-width="0.1"/>
<rect x="4.53488" y="19.0537" width="20.5814" height="0.352847" rx="0.176423" fill="url(#paint1_linear_7_46)"/>
<rect x="4.53488" y="21.1708" width="20.5814" height="0.352847" rx="0.176423" fill="url(#paint2_linear_7_46)"/>
<rect x="4.53488" y="23.2879" width="20.5814" height="0.352847" rx="0.176423" fill="url(#paint3_linear_7_46)"/>
<rect x="4.53488" y="25.405" width="20.5814" height="0.352847" rx="0.176423" fill="url(#paint4_linear_7_46)"/>
<rect x="4.53488" y="27.5221" width="20.5814" height="0.352847" rx="0.176423" fill="url(#paint5_linear_7_46)"/>
<rect x="4.53488" y="29.6391" width="20.5814" height="0.352847" rx="0.176423" fill="url(#paint6_linear_7_46)"/>
<rect x="4.53488" y="31.7562" width="20.5814" height="0.352847" rx="0.176423" fill="url(#paint7_linear_7_46)"/>
<rect x="4.53488" y="33.8733" width="12.5581" height="0.352847" rx="0.176423" fill="url(#paint8_linear_7_46)"/>
<defs>
<linearGradient id="paint0_linear_7_46" x1="3.96537e-07" y1="4.82758" x2="30.3428" y2="34.8256" gradientUnits="userSpaceOnUse">
<stop stop-color="#EDEDED"/>
<stop offset="1" stop-color="#DADADA"/>
</linearGradient>
<linearGradient id="paint1_linear_7_46" x1="4.5349" y1="19.2302" x2="25.1163" y2="19.2302" gradientUnits="userSpaceOnUse">
<stop stop-color="#7E7E7E"/>
<stop offset="0.000100017" stop-color="#727272"/>
<stop offset="1" stop-color="#A2A2A2"/>
</linearGradient>
<linearGradient id="paint2_linear_7_46" x1="4.5349" y1="21.3472" x2="25.1163" y2="21.3472" gradientUnits="userSpaceOnUse">
<stop stop-color="#7E7E7E"/>
<stop offset="0.000100017" stop-color="#727272"/>
<stop offset="1" stop-color="#A2A2A2"/>
</linearGradient>
<linearGradient id="paint3_linear_7_46" x1="4.5349" y1="23.4643" x2="25.1163" y2="23.4643" gradientUnits="userSpaceOnUse">
<stop stop-color="#7E7E7E"/>
<stop offset="0.000100017" stop-color="#727272"/>
<stop offset="1" stop-color="#A2A2A2"/>
</linearGradient>
<linearGradient id="paint4_linear_7_46" x1="4.5349" y1="25.5814" x2="25.1163" y2="25.5814" gradientUnits="userSpaceOnUse">
<stop stop-color="#7E7E7E"/>
<stop offset="0.000100017" stop-color="#727272"/>
<stop offset="1" stop-color="#A2A2A2"/>
</linearGradient>
<linearGradient id="paint5_linear_7_46" x1="4.5349" y1="27.6985" x2="25.1163" y2="27.6985" gradientUnits="userSpaceOnUse">
<stop stop-color="#7E7E7E"/>
<stop offset="0.000100017" stop-color="#727272"/>
<stop offset="1" stop-color="#A2A2A2"/>
</linearGradient>
<linearGradient id="paint6_linear_7_46" x1="4.5349" y1="29.8156" x2="25.1163" y2="29.8156" gradientUnits="userSpaceOnUse">
<stop stop-color="#7E7E7E"/>
<stop offset="0.000100017" stop-color="#727272"/>
<stop offset="1" stop-color="#A2A2A2"/>
</linearGradient>
<linearGradient id="paint7_linear_7_46" x1="4.5349" y1="31.9327" x2="25.1163" y2="31.9327" gradientUnits="userSpaceOnUse">
<stop stop-color="#7E7E7E"/>
<stop offset="0.000100017" stop-color="#727272"/>
<stop offset="1" stop-color="#A2A2A2"/>
</linearGradient>
<linearGradient id="paint8_linear_7_46" x1="4.53488" y1="34.0497" x2="17.093" y2="34.0497" gradientUnits="userSpaceOnUse">
<stop stop-color="#7E7E7E"/>
<stop offset="1" stop-color="#A1A1A1"/>
</linearGradient>
</defs>
</svg>
