<svg width="50" height="40" viewBox="0 0 50 40" fill="none" xmlns="http://www.w3.org/2000/svg">
<path d="M47.1429 3.80556H33.5714H21.0714C19 3.80556 18.9286 3.80556 18.9286 2.08978C18.9286 0 18.9286 0 16.4286 0H2.5C0 0 0 0 0 2.61804V33.7261C0 36.3441 0 36.3441 2.85714 36.3441H47.1429C50 36.3441 50 36.3441 50 33.352V6.79761C50 3.80556 50 3.80556 47.1429 3.80556Z" fill="url(#paint0_linear_13_23)"/>
<path d="M0 11.4525C0 9.79566 1.34315 8.45252 3 8.45252H17.9434C18.527 8.45252 19 7.97948 19 7.39595V7.39595V7.39595C19 6.81246 19.473 6.33945 20.0565 6.33945H47C48.6569 6.33945 50 7.68259 50 9.33945V37C50 38.6568 48.6569 40 47 40H3C1.34315 40 0 38.6568 0 37V12.001V11.4525Z" fill="url(#paint1_linear_13_23)"/>
<rect x="16.4286" y="13.5297" width="17.1429" height="2.99205" rx="1.49602" fill="#EEEEEE"/>
<defs>
<linearGradient id="paint0_linear_13_23" x1="6.69643" y1="18.1112" x2="43.3036" y2="18.1112" gradientUnits="userSpaceOnUse">
<stop stop-color="#B62828"/>
<stop offset="1" stop-color="#F02828"/>
</linearGradient>
<linearGradient id="paint1_linear_13_23" x1="8.92858" y1="6.48906" x2="42.5533" y2="38.5977" gradientUnits="userSpaceOnUse">
<stop stop-color="#D8D8D8"/>
<stop offset="1" stop-color="#757575"/>
</linearGradient>
</defs>
</svg>
